<svg width="41" height="40" viewBox="0 0 41 40" fill="none" xmlns="http://www.w3.org/2000/svg">
<g clip-path="url(#clip0_26_2)">
<path fill-rule="evenodd" clip-rule="evenodd" d="M22.1153 40H2.95769C1.73806 40 0.75 39.0113 0.75 37.7922V2.20768C0.75 0.988212 1.73821 0 2.95769 0H38.5425C39.7616 0 40.75 0.988212 40.75 2.20768V37.7922C40.75 39.0115 39.7615 40 38.5425 40H28.3494V24.5098H33.5488L34.3273 18.473H28.3494V14.6189C28.3494 12.8711 28.8348 11.68 31.3411 11.68L34.5378 11.6786V6.27925C33.9849 6.20568 32.0873 6.04131 29.8796 6.04131C25.2707 6.04131 22.1153 8.85461 22.1153 14.021V18.473H16.9026V24.5098H22.1153V40Z" fill="black"/>
</g>
<defs>
<clipPath id="clip0_26_2">
<rect width="40" height="40" fill="white" transform="translate(0.75)"/>
</clipPath>
</defs>
</svg>
