<svg width="41" height="40" viewBox="0 0 41 40" fill="none" xmlns="http://www.w3.org/2000/svg">
<path fill-rule="evenodd" clip-rule="evenodd" d="M20.75 30C26.2728 30 30.75 25.5228 30.75 20C30.75 14.4771 26.2728 10 20.75 10C15.2271 10 10.75 14.4771 10.75 20C10.75 25.5228 15.2271 30 20.75 30ZM20.75 26.6667C24.4318 26.6667 27.4167 23.6818 27.4167 20C27.4167 16.3181 24.4318 13.3333 20.75 13.3333C17.0681 13.3333 14.0833 16.3181 14.0833 20C14.0833 23.6818 17.0681 26.6667 20.75 26.6667Z" fill="#0F0F0F"/>
<path d="M30.7502 8.33331C29.8297 8.33331 29.0835 9.07951 29.0835 9.99998C29.0835 10.9204 29.8297 11.6666 30.7502 11.6666C31.6707 11.6666 32.4168 10.9204 32.4168 9.99998C32.4168 9.07951 31.6707 8.33331 30.7502 8.33331Z" fill="#0F0F0F"/>
<path fill-rule="evenodd" clip-rule="evenodd" d="M3.50644 7.12679C2.4165 9.2659 2.4165 12.0662 2.4165 17.6667V22.3334C2.4165 27.9339 2.4165 30.7342 3.50644 32.8732C4.46517 34.7549 5.99497 36.2847 7.8766 37.2434C10.0157 38.3334 12.816 38.3334 18.4165 38.3334H23.0832C28.6837 38.3334 31.484 38.3334 33.623 37.2434C35.5047 36.2847 37.0345 34.7549 37.9932 32.8732C39.0832 30.7342 39.0832 27.9339 39.0832 22.3334V17.6667C39.0832 12.0662 39.0832 9.2659 37.9932 7.12679C37.0345 5.24515 35.5047 3.71535 33.623 2.75662C31.484 1.66669 28.6837 1.66669 23.0832 1.66669H18.4165C12.816 1.66669 10.0157 1.66669 7.8766 2.75662C5.99497 3.71535 4.46517 5.24515 3.50644 7.12679ZM23.0832 5.00002H18.4165C15.5612 5.00002 13.6203 5.00262 12.12 5.12519C10.6586 5.24459 9.91124 5.461 9.3899 5.72664C8.13549 6.3658 7.11562 7.38567 6.47645 8.64009C6.21082 9.16142 5.9944 9.90875 5.875 11.3702C5.75244 12.8704 5.74984 14.8114 5.74984 17.6667V22.3334C5.74984 25.1887 5.75244 27.1295 5.875 28.6299C5.9944 30.0914 6.21082 30.8387 6.47645 31.36C7.11562 32.6144 8.13549 33.6342 9.3899 34.2734C9.91124 34.539 10.6586 34.7555 12.12 34.8749C13.6203 34.9974 15.5612 35 18.4165 35H23.0832C25.9385 35 27.8793 34.9974 29.3797 34.8749C30.8412 34.7555 31.5885 34.539 32.1098 34.2734C33.3642 33.6342 34.384 32.6144 35.0232 31.36C35.2888 30.8387 35.5053 30.0914 35.6247 28.6299C35.7472 27.1295 35.7498 25.1887 35.7498 22.3334V17.6667C35.7498 14.8114 35.7472 12.8704 35.6247 11.3702C35.5053 9.90875 35.2888 9.16142 35.0232 8.64009C34.384 7.38567 33.3642 6.3658 32.1098 5.72664C31.5885 5.461 30.8412 5.24459 29.3797 5.12519C27.8793 5.00262 25.9385 5.00002 23.0832 5.00002Z" fill="#0F0F0F"/>
</svg>
