<svg width="60" height="53" viewBox="0 0 60 53" fill="none" xmlns="http://www.w3.org/2000/svg">
<path fill-rule="evenodd" clip-rule="evenodd" d="M52.5 7.5H46.875L45 3.75C43.8956 1.56938 43.32 0 41.25 0H18.75C16.68 0 15.9937 1.78875 15 3.75L13.125 7.5H7.5C3.35812 7.5 0 10.8581 0 15V45C0 49.1419 3.35812 52.5 7.5 52.5H52.5C56.6419 52.5 60 49.1419 60 45V15C60 10.8581 56.6419 7.5 52.5 7.5ZM30 45C21.7162 45 15 38.2837 15 30C15 21.7162 21.7162 15 30 15C38.2837 15 45 21.7162 45 30C45 38.2837 38.2837 45 30 45ZM30 18.75C23.7881 18.75 18.75 23.7881 18.75 30C18.75 36.2119 23.7881 41.25 30 41.25C36.2119 41.25 41.25 36.2119 41.25 30C41.25 23.7881 36.2119 18.75 30 18.75Z" fill="#B8B8B8"/>
</svg>
