<svg width="41" height="32" viewBox="0 0 41 32" fill="none" xmlns="http://www.w3.org/2000/svg">
<path fill-rule="evenodd" clip-rule="evenodd" d="M13.33 31.9996C28.424 31.9996 36.68 19.6867 36.68 9.01033C36.68 8.65983 36.68 8.31197 36.656 7.96541C38.262 6.82333 39.648 5.40531 40.75 3.78279C39.254 4.43653 37.664 4.86526 36.038 5.05428C37.75 4.04414 39.032 2.45715 39.646 0.584551C38.034 1.52577 36.272 2.19004 34.434 2.54646C31.326 -0.706475 26.128 -0.864081 22.822 2.19588C20.692 4.1689 19.786 7.11064 20.448 9.91658C13.85 9.58972 7.702 6.52194 3.534 1.47518C1.356 5.1672 2.47 9.88858 6.076 12.2594C4.77 12.2219 3.492 11.8757 2.35 11.2496V11.3521C2.352 15.1978 5.106 18.5091 8.934 19.2711C7.726 19.596 6.458 19.6431 5.23 19.4088C6.304 22.7011 9.386 24.9561 12.896 25.0211C9.99 27.2698 6.4 28.4908 2.704 28.4869C2.052 28.4849 1.4 28.4475 0.75 28.3707C4.504 30.7415 8.87 31.9996 13.33 31.9937" fill="black"/>
</svg>
