<svg width="41" height="40" viewBox="0 0 41 40" fill="none" xmlns="http://www.w3.org/2000/svg">
<path d="M17.3723 33.8624L17.0938 34.8674C16.7029 36.4849 15.8103 37.9916 15.0301 39.2199C16.9278 39.7215 18.7684 40.0018 20.7214 40.0018C26.245 40.0018 31.2097 37.8256 34.8926 34.1998C38.5185 30.574 40.75 25.5521 40.75 20.0286C40.75 14.505 38.5185 9.48496 34.8926 5.85736C31.2097 2.23154 26.245 0 20.7214 0C15.1979 0 10.2332 2.23154 6.60736 5.85736C2.92442 9.48317 0.75 14.505 0.75 20.0286C0.75 24.1578 1.92111 27.9514 4.09732 31.0756C6.21818 34.1998 9.22987 36.7669 12.6897 38.2719C12.6343 36.8776 12.745 35.3155 13.0806 33.8088C13.136 33.3625 13.3038 32.693 13.5269 31.8004C13.6947 31.0185 13.9732 29.9027 14.3089 28.4531C14.6445 27.0588 15.0908 25.2165 15.5925 22.8742C15.4246 22.5386 15.314 22.2048 15.2568 21.8138C15.0337 21.089 14.9212 20.4195 14.9783 19.6929C14.9783 16.7919 16.6529 14.505 18.8844 14.505C20.725 14.505 21.5623 15.8993 21.5623 17.5185C21.5623 18.4111 21.2838 19.4716 20.8928 20.7552C20.4465 22.0941 20.0555 23.2652 19.777 24.6041C19.4985 25.6646 19.777 26.6125 20.3912 27.3373C21.0053 28.0068 21.9532 28.4531 22.9583 28.4531C24.856 28.4531 26.4181 27.282 27.5339 25.3289C28.6497 23.3759 29.3191 20.698 29.3191 17.797C29.3191 15.6208 28.5943 13.7802 27.1429 12.386C25.6915 10.9917 23.6278 10.2098 20.9499 10.2098C17.9365 10.2098 15.4818 11.2702 13.7537 13.0554C12.0256 14.8407 11.0758 17.24 11.0758 19.8054C11.0758 21.4228 11.5775 22.6511 12.4701 23.6544C12.7486 24.1007 12.861 24.2685 12.7486 24.7702C12.6932 24.938 12.5808 25.2165 12.5254 25.5521C12.3576 26.2769 12.3023 27.2266 11.2972 26.891C8.50685 25.7752 7.22505 22.6511 7.22505 19.1913C7.22505 16.3456 8.39617 13.2768 10.7955 10.8792C13.1949 8.42453 16.8207 6.74998 21.5069 6.74998C25.3559 6.74998 28.5372 8.0889 30.7687 10.2651C33.0003 12.386 34.1714 15.287 34.1714 18.188C34.1714 22.1494 33.111 25.5521 31.2151 28.0068C29.3191 30.4615 26.5842 31.9129 23.4046 31.9129C21.2284 31.9129 19.2201 30.7971 18.4952 29.4028C18.1596 30.6311 17.9365 31.5237 17.7704 32.1932C17.6026 32.918 17.4919 33.5321 17.3795 33.8677L17.3723 33.8624Z" fill="black"/>
</svg>
