<svg width="41" height="41" viewBox="0 0 41 41" fill="none" xmlns="http://www.w3.org/2000/svg">
<path d="M35.8877 31.2731C36.6727 31.2731 37.3092 30.6366 37.3092 29.8516C37.3092 29.0665 36.6727 28.4301 35.8877 28.4301V31.2731ZM23.1802 37.9316C22.9321 38.6765 23.3349 39.4813 24.0797 39.7294C24.8246 39.9773 25.6295 39.5745 25.8776 38.8296L23.1802 37.9316ZM5.20781 28.4301C4.42274 28.4301 3.7863 29.0665 3.7863 29.8516C3.7863 30.6366 4.42274 31.2731 5.20781 31.2731V28.4301ZM15.218 38.8296C15.466 39.5745 16.2709 39.9773 17.0158 39.7294C17.7607 39.4813 18.1634 38.6765 17.9155 37.9316L15.218 38.8296ZM8.16133 7.97828C7.95834 7.21988 7.17902 6.76964 6.42064 6.97261C5.66225 7.17559 5.212 7.95491 5.41497 8.71331L8.16133 7.97828ZM0.715282 20.352C0.0603667 20.7849 -0.119615 21.6668 0.3133 22.3216C0.746233 22.9766 1.6281 23.1565 2.28301 22.7236L0.715282 20.352ZM35.4125 8.71348C35.6155 7.9551 35.1652 7.17576 34.4069 6.97278C33.6485 6.76981 32.8692 7.22007 32.6662 7.97845L35.4125 8.71348ZM38.5444 22.7238C39.1994 23.1567 40.0813 22.9768 40.5142 22.3218C40.9471 21.667 40.7671 20.7851 40.1122 20.3522L38.5444 22.7238ZM28.1274 4.90178C28.769 4.44931 28.9221 3.5624 28.4697 2.92085C28.0173 2.27928 27.1303 2.126 26.4887 2.5785L28.1274 4.90178ZM13.9599 2.17318C13.3283 1.70692 12.4383 1.841 11.972 2.47264C11.5058 3.10426 11.6399 3.99428 12.2715 4.46051L13.9599 2.17318ZM37.863 20.3749C37.863 30.0591 30.022 37.9068 20.3531 37.9068V40.7498C31.5953 40.7498 40.706 31.626 40.706 20.3749H37.863ZM20.3531 37.9068C10.6841 37.9068 2.84301 30.0591 2.84301 20.3749H0C0 31.626 9.1108 40.7498 20.3531 40.7498V37.9068ZM2.84301 20.3749C2.84301 10.6908 10.6841 2.84301 20.3531 2.84301V0C9.1108 0 0 9.12371 0 20.3749H2.84301ZM20.3531 2.84301C30.022 2.84301 37.863 10.6908 37.863 20.3749H40.706C40.706 9.12371 31.5953 0 20.3531 0V2.84301ZM20.6387 16.697L24.1195 19.3592L25.8468 17.1009L22.3658 14.4387L20.6387 16.697ZM24.2842 19.8764L22.9171 24.3058L25.6337 25.1443L27.0008 20.7149L24.2842 19.8764ZM22.4666 24.6394H18.2394V27.4824H22.4666V24.6394ZM17.7889 24.3058L16.4217 19.8764L13.7052 20.7149L15.0724 25.1443L17.7889 24.3058ZM16.5865 19.3592L20.0673 16.697L18.3403 14.4387L14.8594 17.1009L16.5865 19.3592ZM35.8877 28.4301H32.8265V31.2731H35.8877V28.4301ZM24.2939 34.5865L23.1802 37.9316L25.8776 38.8296L26.9913 35.4845L24.2939 34.5865ZM32.8265 28.4301C31.5422 28.4301 30.4594 28.428 29.5777 28.5287C28.6596 28.6337 27.8168 28.8624 27.0518 29.4143L28.7155 31.7198C28.942 31.5563 29.2538 31.4272 29.9005 31.3533C30.5838 31.2752 31.4767 31.2731 32.8265 31.2731V28.4301ZM26.9913 35.4845C27.4182 34.2025 27.7027 33.3549 27.9928 32.7304C28.2677 32.1391 28.4887 31.8834 28.7155 31.7198L27.0518 29.4143C26.287 29.9663 25.8041 30.6939 25.4146 31.5324C25.0403 32.3377 24.7001 33.3665 24.2939 34.5865L26.9913 35.4845ZM5.20781 31.2731H8.26897V28.4301H5.20781V31.2731ZM14.1042 35.4845L15.218 38.8296L17.9155 37.9316L16.8016 34.5865L14.1042 35.4845ZM8.26897 31.2731C9.61885 31.2731 10.5118 31.2752 11.195 31.3533C11.8418 31.4272 12.1535 31.5563 12.3801 31.7198L14.0437 29.4143C13.2787 28.8624 12.436 28.6337 11.5178 28.5287C10.636 28.428 9.55329 28.4301 8.26897 28.4301V31.2731ZM16.8016 34.5865C16.3955 33.3665 16.0552 32.3377 15.681 31.5324C15.2914 30.6941 14.8085 29.9663 14.0437 29.4143L12.3801 31.7198C12.6068 31.8834 12.8279 32.1391 13.1028 32.7304C13.3929 33.3549 13.6774 34.2025 14.1042 35.4845L16.8016 34.5865ZM5.41497 8.71331L6.20726 11.6736L8.95361 10.9385L8.16133 7.97828L5.41497 8.71331ZM3.65442 18.4091L0.715282 20.352L2.28301 22.7236L5.22215 20.7809L3.65442 18.4091ZM6.20726 11.6736C6.55661 12.9788 6.78572 13.8432 6.88725 14.5244C6.98342 15.1696 6.9396 15.5052 6.84021 15.7674L9.49861 16.7751C9.83293 15.8932 9.83553 15.0199 9.69921 14.1053C9.56826 13.2269 9.28605 12.1806 8.95361 10.9385L6.20726 11.6736ZM5.22215 20.7809C6.29399 20.0724 7.19863 19.4769 7.87893 18.9064C8.58729 18.3126 9.16427 17.6572 9.49861 16.7751L6.84021 15.7674C6.74085 16.0294 6.55141 16.3094 6.05222 16.7281C5.52494 17.1701 4.78088 17.6646 3.65442 18.4091L5.22215 20.7809ZM32.6662 7.97845L31.8739 10.9387L34.6203 11.6737L35.4125 8.71348L32.6662 7.97845ZM35.6053 20.7811L38.5444 22.7238L40.1122 20.3522L37.1731 18.4092L35.6053 20.7811ZM31.8739 10.9387C31.5415 12.1808 31.2593 13.227 31.1283 14.1055C30.992 15.0201 30.9945 15.8934 31.3288 16.7753L33.9872 15.7675C33.8879 15.5054 33.8441 15.1698 33.9402 14.5246C34.0418 13.8434 34.2708 12.979 34.6203 11.6737L31.8739 10.9387ZM37.1731 18.4092C36.0465 17.6648 35.3026 17.1703 34.7753 16.7281C34.2761 16.3096 34.0866 16.0296 33.9872 15.7675L31.3288 16.7753C31.6632 17.6574 32.2401 18.3128 32.9486 18.9066C33.6288 19.4771 34.5335 20.0726 35.6053 20.7811L37.1731 18.4092ZM26.4887 2.5785L23.9863 4.34347L25.6248 6.66678L28.1274 4.90178L26.4887 2.5785ZM16.7946 4.26567L13.9599 2.17318L12.2715 4.46051L15.1063 6.55302L16.7946 4.26567ZM23.9863 4.34347C22.8826 5.12178 22.1514 5.6349 21.5479 5.96503C20.9765 6.27763 20.6475 6.35176 20.3685 6.34872L20.3376 9.19158C21.2809 9.20178 22.1014 8.90281 22.9122 8.45928C23.691 8.0333 24.5748 7.40731 25.6248 6.66678L23.9863 4.34347ZM15.1063 6.55302C16.14 7.31609 17.0101 7.96105 17.7794 8.40376C18.5806 8.86473 19.3944 9.18137 20.3376 9.19158L20.3685 6.34872C20.0895 6.34571 19.7621 6.26448 19.1975 5.9396C18.6012 5.59648 17.8812 5.06766 16.7946 4.26567L15.1063 6.55302ZM24.1195 19.3592C24.1995 19.4202 24.2556 19.5029 24.2844 19.5959L27.0008 18.7572C26.8022 18.1138 26.4074 17.5298 25.8468 17.1009L24.1195 19.3592ZM24.2844 19.5959C24.3121 19.6858 24.3132 19.7828 24.2842 19.8764L27.0008 20.7149C27.2025 20.062 27.1932 19.3806 27.0008 18.7572L24.2844 19.5959ZM32.1143 14.9581L25.0987 17.8632L26.1864 20.4899L33.202 17.5848L32.1143 14.9581ZM22.3658 14.4387C21.772 13.9845 21.0618 13.7572 20.3531 13.7572V16.6001C20.4543 16.6001 20.554 16.6322 20.6387 16.697L22.3658 14.4387ZM20.3531 13.7572C19.6444 13.7572 18.9341 13.9845 18.3403 14.4387L20.0673 16.697C20.152 16.6322 20.2517 16.6001 20.3531 16.6001V13.7572ZM21.7746 15.1787V7.77015H18.9316V15.1787H21.7746ZM22.9171 24.3058C22.8879 24.4008 22.8316 24.4802 22.7577 24.5384L24.5166 26.7721C25.0327 26.3657 25.43 25.8043 25.6337 25.1443L22.9171 24.3058ZM22.7577 24.5384C22.6758 24.603 22.5748 24.6394 22.4666 24.6394V27.4824C23.2299 27.4824 23.9469 27.2207 24.5166 26.7721L22.7577 24.5384ZM28.9591 29.6374L24.7126 24.7255L22.5617 26.585L26.8084 31.4968L28.9591 29.6374ZM18.2394 24.6394C18.1312 24.6394 18.0302 24.603 17.9483 24.5384L16.1895 26.7721C16.7592 27.2207 17.4762 27.4824 18.2394 27.4824V24.6394ZM17.9483 24.5384C17.8744 24.4802 17.8181 24.4008 17.7889 24.3058L15.0724 25.1443C15.2761 25.8043 15.6734 26.3657 16.1895 26.7721L17.9483 24.5384ZM14.3299 31.445L18.1869 26.5332L15.9509 24.7774L12.0939 29.6892L14.3299 31.445ZM16.4217 19.8764C16.3928 19.7828 16.394 19.6858 16.4217 19.5959L13.7052 18.7572C13.5128 19.3806 13.5036 20.062 13.7052 20.7149L16.4217 19.8764ZM16.4217 19.5959C16.4504 19.5029 16.5066 19.4202 16.5865 19.3592L14.8594 17.1009C14.2987 17.5298 13.9038 18.1138 13.7052 18.7572L16.4217 19.5959ZM15.6155 17.8666L8.72146 14.9613L7.61737 17.5812L14.5114 20.4865L15.6155 17.8666Z" fill="#1C274C"/>
</svg>
