<svg width="39" height="29" viewBox="0 0 39 29" fill="none" xmlns="http://www.w3.org/2000/svg">
<path d="M36.8985 1.66406C35.0689 -0.167577 32.1011 -0.169042 30.2692 1.66025C30.268 1.66143 30.2668 1.6626 30.2654 1.66406L14.8438 17.1094L9.26567 11.5781C9.13208 11.3868 8.98325 11.2063 8.82036 11.0391C6.99077 9.20742 4.023 9.20596 2.19107 11.0353C2.18989 11.0364 2.18872 11.0376 2.18726 11.0391C0.355616 12.8687 0.354151 15.8367 2.18345 17.6684C2.18462 17.6695 2.18579 17.6707 2.18726 17.6722L11.5623 27.0472C13.3918 28.8788 16.3596 28.8803 18.1916 27.051C18.1927 27.0498 18.1939 27.0486 18.1954 27.0472L36.9451 8.29746C38.7635 6.45498 38.7445 3.4872 36.902 1.66845C36.9008 1.6664 36.8997 1.66524 36.8985 1.66406Z" fill="white"/>
</svg>
