<svg width="150" height="108" viewBox="0 0 150 108" fill="none" xmlns="http://www.w3.org/2000/svg">
<path d="M79.9922 72.4216C82.7174 50.5857 102.628 35.0936 124.463 37.819C132.524 38.8251 140.085 42.271 146.133 47.695C147.116 48.5367 148.596 48.4213 149.437 47.4375C149.795 47.0191 149.994 46.4877 150 45.9372V7.03125C150 3.14795 146.852 0 142.968 0H6.63281C2.96982 0 0 2.96953 0 6.63252V101.179C0 104.842 2.96953 107.812 6.63281 107.812H88.125C89.4193 107.799 90.4582 106.74 90.4456 105.445C90.44 104.895 90.2411 104.363 89.8828 103.945C82.1795 95.3637 78.5716 83.8655 79.9922 72.4216Z" fill="#B8B8B8"/>
</svg>
